<?xml version="1.0" encoding="UTF-8"?>
<svg version="1.1" xmlns="http://www.w3.org/2000/svg" width="677" height="369">
<path d="M0 0 C8.19690561 -0.0231271 16.39379768 -0.04091696 24.59072781 -0.05181217 C28.39651577 -0.0570402 32.20228148 -0.06413638 36.00805664 -0.07543945 C39.67792544 -0.0862712 43.34777278 -0.09227744 47.01765633 -0.09487724 C48.42074992 -0.09673097 49.82384229 -0.1003506 51.2269268 -0.10573006 C53.1856968 -0.11294419 55.1444882 -0.11340809 57.10327148 -0.11352539 C58.22023911 -0.115746 59.33720673 -0.11796661 60.48802185 -0.12025452 C63 0 63 0 64 1 C64.14115161 3.67058851 64.04247107 6.32432238 64 9 C64.4846875 8.60167969 64.969375 8.20335938 65.46875 7.79296875 C66.1390625 7.26316406 66.809375 6.73335938 67.5 6.1875 C68.1496875 5.66542969 68.799375 5.14335938 69.46875 4.60546875 C75.40959015 0.83743588 80.83183068 -0.37545664 87.80200195 -0.40405273 C88.53652588 -0.41091599 89.2710498 -0.41777924 90.02783203 -0.42485046 C92.43151754 -0.44299871 94.8345426 -0.43929738 97.23828125 -0.43359375 C98.92685657 -0.43816226 100.61543004 -0.44346982 102.30400085 -0.44947815 C105.83514988 -0.4583865 109.36607248 -0.45601333 112.8972168 -0.44604492 C117.39590548 -0.43457541 121.89380682 -0.45474705 126.39239216 -0.48396206 C129.87825897 -0.5024175 133.3639405 -0.50201283 136.84984398 -0.49632454 C138.50704233 -0.49617237 140.16425409 -0.50212918 141.82140541 -0.51461601 C153.25149123 -0.58860301 164.09160277 0.16285118 173.5 7.4453125 C180.32386419 14.51796341 181.35317448 22.63111067 181.28515625 32.02734375 C180.84016364 38.22676138 179.22390247 43.98922747 177.55566406 49.94238281 C176.82481372 52.64871265 176.2076117 55.37480896 175.5925293 58.109375 C173.74008568 66.34331758 171.51379173 74.44301602 169.13671875 82.5402832 C167.79317624 87.1319924 166.60262963 91.68868509 165.625 96.375 C163.80602424 103.96867593 159.3086429 115.1072173 153 120 C152.34 120 151.68 120 151 120 C150.6596875 120.86625 150.6596875 120.86625 150.3125 121.75 C147.47952171 126.6065342 142.35680828 129.09634064 137.5 131.625 C136.3965625 132.21539062 135.293125 132.80578125 134.15625 133.4140625 C124.16494755 137.76159669 112.44024971 137.31319223 101.7578125 137.30078125 C100.33584471 137.30468155 98.91387806 137.30901889 97.49191284 137.31376648 C94.53884058 137.32115714 91.58588809 137.32098709 88.6328125 137.31567383 C84.86375441 137.30984333 81.09518203 137.32693022 77.3262043 137.3500185 C74.40069761 137.36478745 71.47530772 137.36562404 68.54977036 137.36250877 C67.16000266 137.36301891 65.7702279 137.36819835 64.38049698 137.37832069 C48.80157227 137.47803421 48.80157227 137.47803421 42.0625 131.3125 C41.381875 130.549375 40.70125 129.78625 40 129 C37.04994773 140.03890527 34.20355865 151.10100035 31.4375 162.1875 C31.13529541 163.39873535 30.83309082 164.6099707 30.52172852 165.85791016 C29.28824496 170.80870908 28.05728865 175.76007479 26.83984375 180.71484375 C25.91300795 184.48170433 24.96285041 188.24215468 24 192 C23.80164551 192.78181641 23.60329102 193.56363281 23.39892578 194.36914062 C22.75799309 196.87464888 22.09989491 199.37508901 21.4375 201.875 C21.23946777 202.65568848 21.04143555 203.43637695 20.83740234 204.24072266 C19.34349955 209.7710003 19.34349955 209.7710003 16 212 C13.14707947 212.24723816 13.14707947 212.24723816 9.63256836 212.24291992 C7.66053688 212.24753487 7.66053688 212.24753487 5.64866638 212.25224304 C4.21239039 212.2453456 2.77611614 212.23807865 1.33984375 212.23046875 C-0.13081319 212.22927661 -1.6014709 212.22882386 -3.0721283 212.2290802 C-6.15303316 212.22751633 -9.23382167 212.21923339 -12.31469727 212.20581055 C-16.26822314 212.18880592 -20.22162132 212.1849967 -24.17517948 212.18575573 C-27.21114831 212.18548413 -30.24708911 212.18000476 -33.28304863 212.17275429 C-34.74113185 212.16956755 -36.19921825 212.1676002 -37.65730476 212.16686058 C-39.69220239 212.16469796 -41.72708819 212.15516215 -43.76196289 212.14526367 C-44.92095596 212.14145187 -46.07994904 212.13764008 -47.27406311 212.13371277 C-50 212 -50 212 -52 211 C-51.58597664 202.83768087 -49.96882485 195.49743988 -47.625 187.6875 C-45.33985639 179.8332914 -43.27052373 172.06950587 -41.67578125 164.046875 C-40.95426759 160.79380764 -40.01359503 157.67365334 -39 154.5 C-37.63801419 150.22971366 -36.52019074 146.01670044 -35.625 141.625 C-32.55255164 126.66134611 -28.31169774 111.9573054 -24.04418945 97.29833984 C-22.32073773 91.30944521 -20.93376209 85.33681873 -19.703125 79.2265625 C-18.98050555 75.91054215 -18.08540934 72.69222054 -17.125 69.4375 C-15.08954484 62.52787059 -13.4309397 55.55207204 -11.7878418 48.54003906 C-10.54138102 43.2342694 -9.21608719 37.96754013 -7.74609375 32.71875 C-6.78582303 29.21954361 -5.88702893 25.70581021 -5 22.1875 C-4.690625 20.96417969 -4.38125 19.74085937 -4.0625 18.48046875 C-3.11023281 14.5762619 -2.27201258 10.65005897 -1.43359375 6.7199707 C-1.16474365 5.46102493 -0.89589355 4.20207916 -0.61889648 2.90498352 C-0.41466064 1.94633896 -0.2104248 0.9876944 0 0 Z M64.70117188 33.72119141 C62.88124844 37.22887966 61.723152 40.64806582 60.78125 44.4609375 C60.59663208 45.16916656 60.41201416 45.87739563 60.22180176 46.60708618 C59.63715649 48.86045543 59.06837771 51.11747933 58.5 53.375 C58.11952225 54.85052709 57.73801905 56.32579014 57.35546875 57.80078125 C55.1477333 66.34491361 53.01551952 74.90832953 50.88769531 83.47265625 C49.8044981 87.77684584 48.66991125 92.06596779 47.515625 96.3515625 C46.41986834 101.67136925 46.41986834 101.67136925 48.01708984 106.65332031 C51.11466374 108.75701615 54.37515756 108.42748086 57.9921875 108.3984375 C58.77514191 108.40130768 59.55809631 108.40417786 60.36477661 108.40713501 C62.02069827 108.40917567 63.67664404 108.40364562 65.33251953 108.39111328 C67.85895206 108.37510171 70.38377444 108.3909386 72.91015625 108.41015625 C74.52083685 108.40817297 76.13151645 108.40432755 77.7421875 108.3984375 C78.49442596 108.40451019 79.24666443 108.41058289 80.021698 108.4168396 C84.51583528 108.35704004 87.4722578 107.85064724 91 105 C95.89279311 98.13856111 97.06913327 88.51074794 99 80.4375 C99.33254756 79.07207401 99.66587728 77.70683827 100 76.34179688 C100.6668678 73.61321714 101.33039285 70.88385956 101.99121094 68.15380859 C103.02942408 63.87178268 104.07969209 59.59285867 105.140625 55.31640625 C105.45547852 54.0435376 105.77033203 52.77066895 106.09472656 51.45922852 C106.88691773 48.43210966 107.76994317 45.47052756 108.75 42.5 C110.10254988 38.18646254 110.25020271 34.50364874 110 30 C104.12964476 27.20528812 98.11434373 27.66457784 91.76269531 27.68432617 C89.63814702 27.68748048 87.51500091 27.66402066 85.390625 27.63867188 C84.02343924 27.63639781 82.65624977 27.63569589 81.2890625 27.63671875 C80.05881348 27.63373779 78.82856445 27.63075684 77.56103516 27.62768555 C72.05384484 28.20347502 68.32525949 29.43125081 64.70117188 33.72119141 Z " fill="#3F5199" transform="translate(110,106)"/>
<path d="M0 0 C1.13373311 0.00436926 1.13373311 0.00436926 2.29036993 0.00882679 C3.48609063 0.00754515 3.48609063 0.00754515 4.70596731 0.00623763 C7.39769296 0.00458039 10.08935734 0.01010815 12.78107733 0.01555592 C14.70238265 0.01583776 16.62368808 0.01568011 18.54499334 0.01511341 C23.77824765 0.01482533 29.01147926 0.02072372 34.24472827 0.02768737 C39.70735921 0.03391921 45.16999062 0.03452457 50.63262457 0.03571278 C60.98468355 0.0388266 71.33673204 0.04704067 81.68878639 0.05706227 C93.47092983 0.06822184 105.25307376 0.07373346 117.03522116 0.0787577 C141.27920704 0.08922324 165.52318359 0.10682366 189.76716131 0.12908131 C189.62180967 1.5425371 189.47305512 2.95564315 189.32291692 4.36859852 C189.24045406 5.1555589 189.1579912 5.94251929 189.07302946 6.75332695 C188.60085905 10.42079253 187.72514912 13.95418553 186.80622381 17.53142506 C186.61498937 18.29403141 186.42375494 19.05663777 186.22672552 19.8423534 C185.82436455 21.44213055 185.41919143 23.04120286 185.01130193 24.63957936 C184.39492508 27.05574745 183.7873268 29.47398968 183.18122381 31.89275318 C182.78590372 33.45994003 182.39008656 35.02700159 181.99372381 36.59392506 C181.81548071 37.30153477 181.6372376 38.00914448 181.45359319 38.73819691 C180.0406624 44.26210497 178.40972612 49.65386527 176.76716131 55.12908131 C156.63716131 55.45908131 136.50716131 55.78908131 115.76716131 56.12908131 C112.70366212 65.92576531 112.70366212 65.92576531 110.02106756 75.78533131 C109.74367742 76.89940357 109.46628729 78.01347584 109.18049139 79.16130787 C108.89971746 80.30567311 108.61894354 81.45003834 108.32966131 82.62908131 C107.87852972 84.45004322 107.87852972 84.45004322 107.41828436 86.30779225 C105.18461475 95.35192347 103.01905659 104.41159516 100.87263006 113.47673756 C97.9549827 125.78094482 94.72954716 137.98674025 91.4131574 150.18865162 C89.27770074 158.09868637 87.29164999 166.0323996 85.45295233 174.01653248 C84.0436354 180.11389513 82.41821001 186.07523607 80.76716131 192.12908131 C57.66716131 192.12908131 34.56716131 192.12908131 10.76716131 192.12908131 C11.41174751 186.32780552 12.0328487 181.44940176 13.43903631 175.91814381 C13.60151861 175.27255512 13.76400091 174.62696644 13.93140692 173.96181446 C14.45420109 171.89105117 14.98549361 169.82258223 15.51716131 167.75408131 C15.88544305 166.30302185 16.25327783 164.85184887 16.62067693 163.40056568 C18.64557547 155.42130913 20.7146273 147.45392181 22.83478826 139.49944264 C24.86851191 131.83296646 26.78474011 124.13714341 28.70466131 116.44158131 C28.87653967 115.75296009 29.04841802 115.06433888 29.22550482 114.35485035 C30.99407058 107.26706694 32.75596972 100.17766947 34.50934881 93.08611256 C34.77626531 92.00998707 35.04318182 90.93386158 35.3181867 89.82512623 C35.8064951 87.85576704 36.29283787 85.88591882 36.77668279 83.91545826 C37.84311759 79.61806602 38.98355133 75.37730241 40.31013006 71.15251881 C41.83222469 65.90476092 42.78972409 60.50498602 43.76716131 55.12908131 C22.97716131 55.12908131 2.18716131 55.12908131 -19.23283869 55.12908131 C-16.91880798 43.55892775 -14.70599563 32.71814069 -11.46721369 21.49236256 C-9.99105201 16.36165955 -8.72414221 11.18269316 -7.48869807 5.98943287 C-6.12163052 0.34373479 -5.84903161 0.01709453 0 0 Z " fill="#8EC262" transform="translate(433.2328386902809,50.870918691158295)"/>
<path d="M0 0 C22.77 0 45.54 0 69 0 C70.58943618 3.17887235 69.12530662 6.15218499 68.25 9.4375 C68.0631665 10.16179199 67.87633301 10.88608398 67.68383789 11.63232422 C66.64384801 15.64187015 65.55259925 19.63568772 64.4375 23.625 C63.36464046 27.49259717 62.48374688 31.3657274 61.67578125 35.296875 C60.09863034 42.72474701 58.24709537 50.06386264 56.32836914 57.40988159 C55.32177982 61.26505707 54.32561442 65.12293071 53.328125 68.98046875 C53.02805542 70.13951469 53.02805542 70.13951469 52.72192383 71.32197571 C50.94695199 78.18528815 49.21364244 85.05861606 47.5 91.9375 C47.22808838 93.02772461 46.95617676 94.11794922 46.67602539 95.24121094 C45.40000065 100.36302733 44.12741001 105.48569158 42.85693359 110.60888672 C41.83751869 114.71939832 40.81579152 118.82933052 39.79296875 122.93899536 C39.39312176 124.54771443 38.99417817 126.15665834 38.59619141 127.76583862 C38.03894576 130.01891466 37.47875107 132.27123952 36.91796875 134.5234375 C36.75366867 135.19096542 36.58936859 135.85849335 36.42008972 136.54624939 C35.44872021 140.43262677 34.28450609 144.20719645 33 148 C32.51335629 150.16048416 32.05639308 152.32780896 31.625 154.5 C30.35905931 160.58674514 28.74003005 166.49353805 26.98046875 172.453125 C25.62972937 177.33946508 24.61082805 182.26335968 23.61328125 187.234375 C23 190 23 190 22 192 C-1.1 192 -24.2 192 -48 192 C-47.36210024 186.25890216 -46.78473995 181.51145137 -45.375 176.0625 C-45.20677734 175.40628662 -45.03855469 174.75007324 -44.86523438 174.07397461 C-42.83831589 166.23555597 -40.68399982 158.43002689 -38.56567383 150.6159668 C-36.80284483 144.08157768 -35.13006633 137.54671291 -33.62231445 130.94873047 C-31.10784865 120.0073713 -28.30150597 109.13389468 -25.56570435 98.2461853 C-24.37870318 93.51915968 -23.20221459 88.78961478 -22.03125 84.05859375 C-21.72034424 82.8053833 -21.40943848 81.55217285 -21.08911133 80.26098633 C-20.5063918 77.91101559 -19.92538061 75.56062027 -19.34643555 73.2097168 C-18.16661677 68.46212031 -16.95117435 63.75466448 -15.48828125 59.0859375 C-13.95624519 54.0953649 -12.91034272 49.0428094 -11.84814453 43.93457031 C-10.41810097 37.17722162 -8.71363227 30.48255208 -7.03833008 23.78271484 C-6.42993057 21.34466693 -5.82914302 18.90481652 -5.22851562 16.46484375 C-4.83900063 14.90092729 -4.44904333 13.3371209 -4.05859375 11.7734375 C-3.88146347 11.05054535 -3.70433319 10.3276532 -3.52183533 9.58285522 C-2.63910828 6.08383177 -1.62904544 3.25809087 0 0 Z " fill="#8EC262" transform="translate(340,51)"/>
<path d="M0 0 C64.35 0 128.7 0 195 0 C195 1.98 195 3.96 195 6 C194.67 6 194.34 6 194 6 C194 4.35 194 2.7 194 1 C171.58951878 1.10752802 149.1790696 1.22033944 126.76864624 1.33933926 C116.3617255 1.39447874 105.95480133 1.44792768 95.54785156 1.49731445 C86.47093125 1.54039387 77.39403422 1.58672916 68.31715012 1.63687855 C63.51669831 1.66328967 58.71625054 1.68813534 53.91577148 1.70907402 C49.38501128 1.72888789 44.85429459 1.75309909 40.32357407 1.78049088 C38.67259398 1.78973219 37.02160445 1.79745167 35.37060928 1.80341911 C17.92278295 1.19706593 17.92278295 1.19706593 1 4 C0.67 5.98 0.34 7.96 0 10 C-0.66 10 -1.32 10 -2 10 C-1.67 10.99 -1.34 11.98 -1 13 C-1.99 13.66 -2.98 14.32 -4 15 C-3.4660563 8.91304181 -2.5773452 6.01380547 0 0 Z " fill="#A9C18A" transform="translate(428,51)"/>
<path d="M0 0 C57.42 0 114.84 0 174 0 C174 8 174 8 172 11 C171.14143345 7.5657338 171.02408417 5.38317487 172 2 C171.06220845 2.00138269 171.06220845 2.00138269 170.10547161 2.00279331 C154.66011295 2.02519648 139.21476019 2.04157673 123.76938915 2.05181217 C116.29913421 2.05689762 108.82889043 2.06381284 101.35864258 2.07543945 C67.56053819 2.12702975 33.78576296 2.06485822 0 1 C0 0.67 0 0.34 0 0 Z " fill="#93B56A" transform="translate(448,52)"/>
<path d="M0 0 C1.79166981 3.34884887 2.29673559 5.67450438 2.3125 9.5 C2.32925781 10.4384375 2.34601563 11.376875 2.36328125 12.34375 C1.94108261 15.43079383 1.20093865 16.81452462 -1 19 C-1.99 19 -2.98 19 -4 19 C-3.79375 19.9075 -3.5875 20.815 -3.375 21.75 C-2.9872755 25.11027897 -3.19588033 26.24075815 -5 29 C-1.69536599 30.10154467 0.82610919 30.15818717 4.30737305 30.20532227 C5.60849533 30.22526749 6.90961761 30.24521271 8.25016785 30.26576233 C9.6706836 30.28274546 11.0912006 30.29962431 12.51171875 30.31640625 C13.96475306 30.33698137 15.41778146 30.35797799 16.87080383 30.37937927 C20.6929953 30.43454234 24.51524026 30.48397698 28.33752441 30.53222656 C32.23873652 30.58248372 36.13987105 30.63814778 40.04101562 30.69335938 C47.69394469 30.80087041 55.34693833 30.90233098 63 31 C63 31.33 63 31.66 63 32 C39.9 32 16.8 32 -7 32 C-5.875 21.875 -5.875 21.875 -4.58984375 17.08984375 C-4.32236328 16.08115234 -4.05488281 15.07246094 -3.77929688 14.03320312 C-3.50150391 13.01162109 -3.22371094 11.99003906 -2.9375 10.9375 C-2.65583984 9.88111328 -2.37417969 8.82472656 -2.08398438 7.73632812 C-1.39510271 5.15594085 -0.70034171 2.57729586 0 0 Z " fill="#A8C091" transform="translate(451,211)"/>
<path d="M0 0 C0.33 0 0.66 0 1 0 C0.88465396 1.56324232 0.75724874 3.12559683 0.625 4.6875 C0.55539062 5.55761719 0.48578125 6.42773438 0.4140625 7.32421875 C0 10 0 10 -2 15 C-25.1 15 -48.2 15 -72 15 C-71 6 -71 6 -69 3 C-68.83723958 5.01822917 -68.67447917 7.03645833 -68.51171875 9.0546875 C-68.12606964 11.39519216 -68.12606964 11.39519216 -65 13 C-62.36607717 13.29745156 -62.36607717 13.29745156 -59.36694336 13.24291992 C-57.6351609 13.24753487 -57.6351609 13.24753487 -55.86839294 13.25224304 C-54.62147171 13.24505753 -53.37455048 13.23787201 -52.08984375 13.23046875 C-50.81146133 13.23001053 -49.53307892 13.22955231 -48.21595764 13.2290802 C-45.51159403 13.22605688 -42.80757058 13.21923853 -40.10327148 13.20581055 C-36.63401444 13.18880389 -33.16490294 13.18499679 -29.69560909 13.18575573 C-26.38950621 13.18541876 -23.08343394 13.17658294 -19.77734375 13.16796875 C-18.52839828 13.16685593 -17.27945282 13.1657431 -15.99266052 13.16459656 C-14.84129105 13.15821671 -13.68992157 13.15183685 -12.50366211 13.14526367 C-11.48678818 13.14145187 -10.46991425 13.13764008 -9.42222595 13.13371277 C-6.98952242 13.16027548 -6.98952242 13.16027548 -5 12 C-3.90333791 9.72700231 -3.90333791 9.72700231 -2.9375 7.0625 C-1.03030303 2.06060606 -1.03030303 2.06060606 0 0 Z " fill="#A9C38F" transform="translate(364,228)"/>
<path d="M0 0 C8.19690561 -0.0231271 16.39379768 -0.04091696 24.59072781 -0.05181217 C28.39651577 -0.0570402 32.20228148 -0.06413638 36.00805664 -0.07543945 C39.67792544 -0.0862712 43.34777278 -0.09227744 47.01765633 -0.09487724 C48.42074992 -0.09673097 49.82384229 -0.1003506 51.2269268 -0.10573006 C53.1856968 -0.11294419 55.1444882 -0.11340809 57.10327148 -0.11352539 C58.22023911 -0.115746 59.33720673 -0.11796661 60.48802185 -0.12025452 C63 0 63 0 64 1 C64.14115161 3.67058851 64.04247107 6.32432238 64 9 C64.51949219 8.57847656 65.03898437 8.15695313 65.57421875 7.72265625 C72.50087873 2.28119508 72.50087873 2.28119508 77 2 C77 2.66 77 3.32 77 4 C75.68 4 74.36 4 73 4 C72.62875 5.11375 72.62875 5.11375 72.25 6.25 C70.86273607 9.30198066 69.69305063 10.9994481 67 13 C64.25 12.75 64.25 12.75 62 12 C61.67 8.7 61.34 5.4 61 2 C30.805 1.505 30.805 1.505 0 1 C0 0.67 0 0.34 0 0 Z " fill="#949FC5" transform="translate(110,106)"/>
<path d="M0 0 C20.13 0 40.26 0 61 0 C61 0.33 61 0.66 61 1 C57.42664606 1.81742961 54.13785349 2.1221027 50.4753418 2.11352539 C49.39459885 2.11344986 48.3138559 2.11337433 47.20036316 2.11329651 C46.0449855 2.10813522 44.88960785 2.10297394 43.69921875 2.09765625 C41.91195122 2.09553383 41.91195122 2.09553383 40.08857727 2.09336853 C36.28819249 2.08777728 32.48786693 2.07522632 28.6875 2.0625 C26.10872481 2.05748387 23.5299487 2.05292116 20.95117188 2.04882812 C14.63409443 2.03781071 8.31705145 2.02108122 2 2 C1.67 3.98 1.34 5.96 1 8 C0.67 8 0.34 8 0 8 C0 5.36 0 2.72 0 0 Z " fill="#3C4A82" transform="translate(110,107)"/>
<path d="M0 0 C22.77 0 45.54 0 69 0 C70.616332 3.23266399 69.07667545 6.34480315 68.1875 9.6875 C68.00896484 10.38294922 67.83042969 11.07839844 67.64648438 11.79492188 C66.5025594 16.21782313 65.2709482 20.61206571 64 25 C62.5950596 21.10939581 63.30486761 17.76907638 63.9375 13.75 C64.13214844 12.48671875 64.32679688 11.2234375 64.52734375 9.921875 C64.76130859 8.47554687 64.76130859 8.47554687 65 7 C65.99 7 66.98 7 68 7 C68 5.35 68 3.7 68 2 C34.34 1.505 34.34 1.505 0 1 C0 0.67 0 0.34 0 0 Z " fill="#AFC792" transform="translate(340,51)"/>
<path d="M0 0 C8.70116929 -0.02314169 17.40232803 -0.04092443 26.10352135 -0.05181217 C30.14356954 -0.05703699 34.18359672 -0.06412739 38.22363281 -0.07543945 C42.120441 -0.08628254 46.01722895 -0.09227987 49.91405106 -0.09487724 C51.40284163 -0.09672892 52.89163107 -0.10034463 54.38041306 -0.10573006 C56.46115285 -0.11295934 58.54180832 -0.11399014 60.62255859 -0.11352539 C61.80836517 -0.115746 62.99417175 -0.11796661 64.21591187 -0.12025452 C67 0 67 0 69 1 C69 2.65 69 4.3 69 6 C68.34 6 67.68 6 67 6 C67 4.68 67 3.36 67 2 C45.88 2 24.76 2 3 2 C2.01 4.97 1.02 7.94 0 11 C-0.66 11 -1.32 11 -2 11 C-1.125 3.375 -1.125 3.375 0 0 Z " fill="#94B76C" transform="translate(339,52)"/>
<path d="M0 0 C1.3468923 4.04067689 0.26935339 7.16922024 -0.6875 11.1875 C-0.86958008 11.97817871 -1.05166016 12.76885742 -1.23925781 13.58349609 C-3.05765815 21.41384609 -5.00547727 29.21287403 -7 37 C-7.33 37 -7.66 37 -8 37 C-8.19760479 23.43113772 -8.19760479 23.43113772 -7 19 C-6.34 18.67 -5.68 18.34 -5 18 C-4.49216344 14.84765155 -4.16070973 11.72494897 -3.87695312 8.546875 C-3.32187563 3.40615728 -3.32187563 3.40615728 -1.43359375 1.0234375 C-0.96050781 0.68570313 -0.48742187 0.34796875 0 0 Z " fill="#ABC88C" transform="translate(536,148)"/>
<path d="M0 0 C2 3 2 3 1.6875 6.5625 C1 10 1 10 0 12 C-0.34058855 13.91187521 -0.64849219 15.82965059 -0.9375 17.75 C-1.61820908 22.00827031 -2.43021887 25.96341996 -4 30 C-4.66 30 -5.32 30 -6 30 C-5.67 31.32 -5.34 32.64 -5 34 C-5.66 34 -6.32 34 -7 34 C-7.33 36.31 -7.66 38.62 -8 41 C-9.20449489 37.48775075 -8.78260894 35.13043576 -7.890625 31.5625 C-7.63023437 30.50160156 -7.36984375 29.44070312 -7.1015625 28.34765625 C-6.82054687 27.24292969 -6.53953125 26.13820312 -6.25 25 C-5.98445313 23.92621094 -5.71890625 22.85242188 -5.4453125 21.74609375 C-4.6393909 18.49502166 -3.82057958 15.24740006 -3 12 C-2.43169339 9.72931632 -1.8639554 7.45849022 -1.296875 5.1875 C-0.86458333 3.45833333 -0.43229167 1.72916667 0 0 Z " fill="#A7C388" transform="translate(319,131)"/>
<path d="M0 0 C2.9069172 10.55953257 -0.77458688 22.24904665 -5 32 C-5.66 32 -6.32 32 -7 32 C-6.32646876 24.97481339 -4.69695944 18.3255596 -2.9375 11.5 C-2.65583984 10.39140625 -2.37417969 9.2828125 -2.08398438 8.140625 C-1.39361604 5.4259563 -0.69885625 2.71249362 0 0 Z " fill="#AFCA92" transform="translate(472,127)"/>
<path d="M0 0 C2 2 2 2 2.25 4.875 C2.01152253 7.85596832 1.54507335 9.4892558 0 12 C-0.66 12 -1.32 12 -2 12 C-1.67 13.98 -1.34 15.96 -1 18 C-1.66 18 -2.32 18 -3 18 C-3 20.97 -3 23.94 -3 27 C-3.99 27.33 -4.98 27.66 -6 28 C-6.73323796 30.01508358 -6.73323796 30.01508358 -7 32 C-6.53084891 24.48739603 -5.0150249 17.59572459 -2.9375 10.375 C-2.65583984 9.37082031 -2.37417969 8.36664063 -2.08398438 7.33203125 C-1.39671657 4.88582382 -0.70197633 2.442019 0 0 Z " fill="#ADCA8E" transform="translate(423,68)"/>
<path d="M0 0 C0.99 0 1.98 0 3 0 C2.43658321 7.18356403 0.94489027 14.39970625 -2 21 C-4.13671875 22.3828125 -4.13671875 22.3828125 -6 23 C-5.37650642 20.47878568 -4.75124639 17.95803069 -4.125 15.4375 C-3.86396484 14.38079102 -3.86396484 14.38079102 -3.59765625 13.30273438 C-2.48705185 8.83975002 -1.28798784 4.41512948 0 0 Z " fill="#A6C689" transform="translate(517,217)"/>
<path d="M0 0 C1.32 0 2.64 0 4 0 C2.82744291 3.33727786 1.81131596 5.77437487 -1 8 C-1.66 8 -2.32 8 -3 8 C-3.2475 8.598125 -3.495 9.19625 -3.75 9.8125 C-5.16370012 12.28647521 -6.65055383 13.43370255 -9 15 C-8.625 12.5625 -8.625 12.5625 -8 10 C-7.34 9.67 -6.68 9.34 -6 9 C-6 7.68 -6 6.36 -6 5 C-5.195625 4.731875 -4.39125 4.46375 -3.5625 4.1875 C-2.716875 3.795625 -1.87125 3.40375 -1 3 C-0.67 2.01 -0.34 1.02 0 0 Z " fill="#6573A4" transform="translate(264,218)"/>
<path d="M0 0 C0.99 0 1.98 0 3 0 C2.29058623 5.56329746 1.18398149 10.97148045 -0.0625 16.4375 C-0.3419043 17.67790039 -0.3419043 17.67790039 -0.62695312 18.94335938 C-1.0822005 20.96279004 -1.54075861 22.98147387 -2 25 C-2.33 25 -2.66 25 -3 25 C-3.28436965 16.89546495 -2.39445571 8.97995095 -1 1 C-0.67 0.67 -0.34 0.34 0 0 Z " fill="#ADC78F" transform="translate(381,153)"/>
<path d="M0 0 C2.79564844 4.74141975 2.69937851 9.64080884 2 15 C0 17.6875 0 17.6875 -2 19 C-4.76285404 13.47429191 -2.42559806 7.43785323 -0.65625 1.94140625 C-0.33140625 0.98041016 -0.33140625 0.98041016 0 0 Z " fill="#A1C580" transform="translate(451,211)"/>
<path d="M0 0 C9.57 0 19.14 0 29 0 C29 0.33 29 0.66 29 1 C20.42 1.33 11.84 1.66 3 2 C2.01 4.97 1.02 7.94 0 11 C-0.66 11 -1.32 11 -2 11 C-1.125 3.375 -1.125 3.375 0 0 Z " fill="#94B56D" transform="translate(339,52)"/>
<path d="M0 0 C1.32 0 2.64 0 4 0 C3.37968409 6.57534861 1.85102717 12.66692592 0 19 C-0.33 19 -0.66 19 -1 19 C-1.0272616 16.95840905 -1.04651345 14.91671037 -1.0625 12.875 C-1.07410156 11.73804688 -1.08570313 10.60109375 -1.09765625 9.4296875 C-1.005327 6.1870844 -0.61389906 3.18067388 0 0 Z " fill="#A0C07F" transform="translate(524,185)"/>
<path d="M0 0 C0.99 0.33 1.98 0.66 3 1 C2.29843593 8.15595346 0.69214979 15.01855181 -1 22 C-2.83031937 18.9231176 -3.19070408 17.18071427 -2.5390625 13.671875 C-2.39726563 12.87265625 -2.25546875 12.0734375 -2.109375 11.25 C-1.94953125 10.425 -1.7896875 9.6 -1.625 8.75 C-1.47289062 7.90953125 -1.32078125 7.0690625 -1.1640625 6.203125 C-0.78772317 4.13325867 -0.39540481 2.06630902 0 0 Z " fill="#9CBC7A" transform="translate(617,62)"/>
<path d="M0 0 C7.86597883 2.19515688 11.23995769 5.89262063 15.1796875 12.78125 C16.12369565 15.33456727 15.92606971 16.48474893 15 19 C14.34 19 13.68 19 13 19 C13 17.02 13 15.04 13 13 C12.34 12.67 11.68 12.34 11 12 C10.896875 11.195625 10.79375 10.39125 10.6875 9.5625 C10.460625 8.716875 10.23375 7.87125 10 7 C7.52363988 5.62533375 7.52363988 5.62533375 5 5 C5 4.34 5 3.68 5 3 C3.35 2.67 1.7 2.34 0 2 C0 1.34 0 0.68 0 0 Z " fill="#7C86A7" transform="translate(274,109)"/>
<path d="M0 0 C1.49278322 3.88123638 0.30030822 6.17131468 -1 10 C-1.57217133 12.45141296 -2.11344296 14.91022517 -2.625 17.375 C-3.01558594 19.24285156 -3.01558594 19.24285156 -3.4140625 21.1484375 C-3.70410156 22.55996094 -3.70410156 22.55996094 -4 24 C-5.96282811 21.20402902 -6.00108464 20.00812564 -5.5390625 16.546875 C-5.23742187 15.29390625 -4.93578125 14.0409375 -4.625 12.75 C-4.32851563 11.48671875 -4.03203125 10.2234375 -3.7265625 8.921875 C-3.48679687 7.95765625 -3.24703125 6.9934375 -3 6 C-2.34 6 -1.68 6 -1 6 C-0.67 4.02 -0.34 2.04 0 0 Z " fill="#AEC992" transform="translate(374,189)"/>
<path d="M0 0 C1.07720029 3.23160086 0.96605369 3.90410957 0.0390625 7.01953125 C-0.18523437 7.79490234 -0.40953125 8.57027344 -0.640625 9.36914062 C-0.88296875 10.17544922 -1.1253125 10.98175781 -1.375 11.8125 C-2.86513393 16.86012398 -4.27587731 21.77116056 -5 27 C-5.12375 26.360625 -5.2475 25.72125 -5.375 25.0625 C-5.58125 24.381875 -5.7875 23.70125 -6 23 C-6.66 22.67 -7.32 22.34 -8 22 C-7.34 22 -6.68 22 -6 22 C-5.87882813 21.09636719 -5.75765625 20.19273437 -5.6328125 19.26171875 C-5.46523437 18.08222656 -5.29765625 16.90273438 -5.125 15.6875 C-4.96257812 14.51574219 -4.80015625 13.34398437 -4.6328125 12.13671875 C-4 9 -4 9 -2 6 C-1.83286431 3.37468476 -1.83286431 3.37468476 -2 1 C-1.34 0.67 -0.68 0.34 0 0 Z " fill="#737CA6" transform="translate(139,271)"/>
<path d="M0 0 C4.43737712 -0.08690253 8.87453634 -0.14035926 13.3125 -0.1875 C14.57513672 -0.21263672 15.83777344 -0.23777344 17.13867188 -0.26367188 C18.34716797 -0.27333984 19.55566406 -0.28300781 20.80078125 -0.29296875 C21.91622314 -0.3086792 23.03166504 -0.32438965 24.1809082 -0.34057617 C27 0 27 0 28.8828125 1.390625 C30.98263052 4.41553768 29.62278599 7.54636863 29 11 C28.67 11 28.34 11 28 11 C28 8.36 28 5.72 28 3 C24.46498542 2.21226083 21.09750212 1.82504198 17.48046875 1.68359375 C16.45888672 1.64169922 15.43730469 1.59980469 14.38476562 1.55664062 C13.32966797 1.51732422 12.27457031 1.47800781 11.1875 1.4375 C9.57584961 1.37272461 9.57584961 1.37272461 7.93164062 1.30664062 C5.28787918 1.20089017 2.6440289 1.09879767 0 1 C0 0.67 0 0.34 0 0 Z " fill="#A1A8CB" transform="translate(192,133)"/>
<path d="M0 0 C2.51407003 3.77110505 1.99085217 4.9999676 1.25 9.375 C0.97929687 11.05722656 0.97929687 11.05722656 0.703125 12.7734375 C0.06371862 15.70760231 -0.78908994 18.26005943 -2 21 C-2.66 21 -3.32 21 -4 21 C-3.29843593 13.84404654 -1.69214979 6.98144819 0 0 Z " fill="#AAC88E" transform="translate(336,63)"/>
<path d="M0 0 C2.35953094 2.35953094 2.49141413 3.77895617 3 7 C2.01 7.33 1.02 7.66 0 8 C0.04125 9.0725 0.0825 10.145 0.125 11.25 C0.0114175 14.65747485 -0.21273364 16.20739631 -2 19 C-2.66 19 -3.32 19 -4 19 C-2.75297849 12.64549677 -1.42635741 6.31672565 0 0 Z " fill="#616A9B" transform="translate(81,221)"/>
<path d="M0 0 C0.33 0 0.66 0 1 0 C1.23911496 6.3631147 1.42048428 12.99409248 -1 19 C-1.99 19.66 -2.98 20.32 -4 21 C-3.39700836 13.76410027 -1.8849413 7.00629124 0 0 Z " fill="#B0CB92" transform="translate(456,190)"/>
<path d="M0 0 C0.66 0 1.32 0 2 0 C0.62469483 8.07385038 -1.10031645 16.03399365 -3 24 C-3.33 24 -3.66 24 -4 24 C-4 21.03 -4 18.06 -4 15 C-3.67 15 -3.34 15 -3 15 C-2.95101563 14.33613281 -2.90203125 13.67226562 -2.8515625 12.98828125 C-2.10896309 4.21792619 -2.10896309 4.21792619 0 0 Z " fill="#AAC58C" transform="translate(388,129)"/>
<path d="M0 0 C2 3 2 3 2 5 C1.34 5 0.68 5 0 5 C0.20625 5.9075 0.4125 6.815 0.625 7.75 C1.0127245 11.11027897 0.80411967 12.24075815 -1 15 C1.31 15.66 3.62 16.32 6 17 C6 17.33 6 17.66 6 18 C3.03 18 0.06 18 -3 18 C-2.41509121 11.85845775 -1.45933748 5.99320151 0 0 Z " fill="#B0C998" transform="translate(447,225)"/>
<path d="M0 0 C2 3 2 3 2 5 C1.34 5 0.68 5 0 5 C0.061875 6.3303125 0.061875 6.3303125 0.125 7.6875 C0.00102754 10.97277013 -0.61387904 13.05449295 -2 16 C-1.34 16.33 -0.68 16.66 0 17 C-0.66 18.32 -1.32 19.64 -2 21 C-2.66 21 -3.32 21 -4 21 C-4.21544006 15.76884607 -3.52370193 11.56214697 -2 6.5625 C-1.62875 5.32628906 -1.2575 4.09007813 -0.875 2.81640625 C-0.58625 1.88699219 -0.2975 0.95757812 0 0 Z " fill="#BAD6A1" transform="translate(331,84)"/>
<path d="M0 0 C0.33 0 0.66 0 1 0 C1.18451025 11.52164009 1.18451025 11.52164009 0 17 C-0.99 16.67 -1.98 16.34 -3 16 C-3.33 16.66 -3.66 17.32 -4 18 C-3.31195504 11.80759538 -1.71951285 5.98044406 0 0 Z " fill="#B2CE96" transform="translate(302,199)"/>
<path d="M0 0 C0.66 0.33 1.32 0.66 2 1 C2.08159574 5.16138263 1.98248524 8.9472484 1 13 C0.01 13 -0.98 13 -2 13 C-1.85966889 11.02043559 -1.7125877 9.04134859 -1.5625 7.0625 C-1.48128906 5.96035156 -1.40007812 4.85820312 -1.31640625 3.72265625 C-1 1 -1 1 0 0 Z " fill="#5E6997" transform="translate(281,167)"/>
<path d="M0 0 C12.87 0.495 12.87 0.495 26 1 C26 1.33 26 1.66 26 2 C17.42 2.33 8.84 2.66 0 3 C0 2.01 0 1.02 0 0 Z " fill="#495591" transform="translate(187,107)"/>
<path d="M0 0 C1.32435978 3.97307934 0.18129186 6.80974568 -0.9375 10.6875 C-1.13279297 11.38939453 -1.32808594 12.09128906 -1.52929688 12.81445312 C-2.01199136 14.54508944 -2.50500846 16.27284066 -3 18 C-4.84006479 15.29990493 -5.01314295 14.10764077 -4.609375 10.80078125 C-4.32578125 9.64964844 -4.0421875 8.49851562 -3.75 7.3125 C-3.47671875 6.15363281 -3.2034375 4.99476562 -2.921875 3.80078125 C-2.61765625 2.87652344 -2.3134375 1.95226562 -2 1 C-1.34 0.67 -0.68 0.34 0 0 Z " fill="#B7CF9E" transform="translate(394,111)"/>
<path d="M0 0 C0.66 0 1.32 0 2 0 C1.42978625 6.95660771 -0.01302694 13.31427305 -2 20 C-2.33 20 -2.66 20 -3 20 C-3.40665339 13.49354584 -2.48672342 9.00958159 0 3 C0 2.01 0 1.02 0 0 Z " fill="#B6CD96" transform="translate(400,81)"/>
<path d="M0 0 C0.94314127 3.41610225 1.08065117 6.45134864 1 10 C0.34 10 -0.32 10 -1 10 C-0.67 11.32 -0.34 12.64 0 14 C-0.66 14 -1.32 14 -2 14 C-2.33 16.31 -2.66 18.62 -3 21 C-3.95827504 17.95501389 -3.99431517 15.97726069 -3.22265625 12.890625 C-3.03896484 12.13652344 -2.85527344 11.38242188 -2.66601562 10.60546875 C-2.36727539 9.43951172 -2.36727539 9.43951172 -2.0625 8.25 C-1.86720703 7.45722656 -1.67191406 6.66445312 -1.47070312 5.84765625 C-0.98875921 3.89637115 -0.49547912 1.94789217 0 0 Z " fill="#AFCC91" transform="translate(314,151)"/>
<path d="M0 0 C0.99 0.66 1.98 1.32 3 2 C2.71682074 3.60568666 2.42312209 5.20952047 2.125 6.8125 C1.96257812 7.70582031 1.80015625 8.59914062 1.6328125 9.51953125 C1 12 1 12 -1 15 C-2.01603857 9.20858017 -1.96263236 5.5415502 0 0 Z " fill="#7580A8" transform="translate(287,143)"/>
<path d="M0 0 C0.33 0 0.66 0 1 0 C1 3.3 1 6.6 1 10 C0.01 10.495 0.01 10.495 -1 11 C-1 12.98 -1 14.96 -1 17 C-1.99 17 -2.98 17 -4 17 C-2.07289294 5.47835991 -2.07289294 5.47835991 0 0 Z " fill="#B7D19C" transform="translate(324,112)"/>
<path d="M0 0 C0.99 0 1.98 0 3 0 C2.67 3.3 2.34 6.6 2 10 C1.01 10 0.02 10 -1 10 C-0.67 6.7 -0.34 3.4 0 0 Z " fill="#A5C781" transform="translate(477,106)"/>
<path d="M0 0 C2 3 2 3 1.8125 6.375 C1.03017106 9.86539065 0.02785348 12.09047109 -2 15 C-3.31534494 11.34142468 -2.65468309 8.91973519 -1.5625 5.25 C-1.27503906 4.26515625 -0.98757812 3.2803125 -0.69140625 2.265625 C-0.46324219 1.51796875 -0.23507813 0.7703125 0 0 Z " fill="#636E9E" transform="translate(103,136)"/>
<path d="M0 0 C0.33 0 0.66 0 1 0 C1 2.31 1 4.62 1 7 C1.66 7 2.32 7 3 7 C1.87548273 9.9719385 0.77706209 12.33440687 -1 15 C-1.97798721 11.20431539 -1.92653069 8.4994001 -1.0625 4.6875 C-0.86785156 3.80449219 -0.67320312 2.92148438 -0.47265625 2.01171875 C-0.31667969 1.34785156 -0.16070312 0.68398437 0 0 Z " fill="#A1C680" transform="translate(305,186)"/>
<path d="M0 0 C1.45708597 3.91837983 0.60354951 7.11666453 -0.25 11.125 C-0.50265625 12.36507812 -0.7553125 13.60515625 -1.015625 14.8828125 C-2 18 -2 18 -5 20 C-3.76583013 13.17576662 -2.1084005 6.60632156 0 0 Z " fill="#8E9AB9" transform="translate(94,172)"/>
<path d="M0 0 C0.66 0 1.32 0 2 0 C3 3 3 3 1.5625 5.9375 C1.046875 6.948125 0.53125 7.95875 0 9 C0 10.32 0 11.64 0 13 C-0.99 13.33 -1.98 13.66 -3 14 C-2.68872484 12.41642541 -2.37592711 10.83315007 -2.0625 9.25 C-1.80146484 7.92742187 -1.80146484 7.92742187 -1.53515625 6.578125 C-1.07631512 4.36764947 -0.56663926 2.18487932 0 0 Z " fill="#707EA3" transform="translate(108,116)"/>
<path d="M0 0 C1.41922045 3.76673605 0.52544951 5.97008909 -0.9375 9.625 C-2.4760323 13.21381238 -2.4760323 13.21381238 -3 17 C-3.66 17 -4.32 17 -5 17 C-4.855625 16.29875 -4.71125 15.5975 -4.5625 14.875 C-3.98521625 11.92443859 -3.48304859 8.96729849 -3 6 C-2.34 6 -1.68 6 -1 6 C-1.33 4.35 -1.66 2.7 -2 1 C-1.34 0.67 -0.68 0.34 0 0 Z " fill="#91BA6D" transform="translate(334,83)"/>
<path d="M0 0 C0.99 0.33 1.98 0.66 3 1 C2.67 1.33 2.34 1.66 2 2 C1.7131854 5.26422335 1.55112395 8.52864491 1.37890625 11.80078125 C1.03055617 14.74200509 0.52254021 16.50352719 -1 19 C-2.19127531 14.643098 -1.76679687 11.12042737 -1.0625 6.6875 C-0.86785156 5.43324219 -0.67320312 4.17898437 -0.47265625 2.88671875 C-0.31667969 1.93410156 -0.16070312 0.98148437 0 0 Z " fill="#9BC079" transform="translate(396,90)"/>
<path d="M0 0 C0.99 0 1.98 0 3 0 C2.39009109 3.55780196 1.4216319 6.6828589 0 10 C-0.66 10 -1.32 10 -2 10 C-2 10.66 -2 11.32 -2 12 C-2.66 11.67 -3.32 11.34 -4 11 C-2.68 7.37 -1.36 3.74 0 0 Z " fill="#6D7AA4" transform="translate(205,198)"/>
<path d="M0 0 C0.33 0 0.66 0 1 0 C1.0272415 1.41655793 1.04650467 2.83327045 1.0625 4.25 C1.07410156 5.03890625 1.08570313 5.8278125 1.09765625 6.640625 C1.00385306 8.90691002 0.63241063 10.8288895 0 13 C-0.99 13 -1.98 13 -3 13 C-2.68991116 11.39536551 -2.37683713 9.79130769 -2.0625 8.1875 C-1.88847656 7.29417969 -1.71445312 6.40085938 -1.53515625 5.48046875 C-1 3 -1 3 0 0 Z " fill="#AFCB91" transform="translate(309,172)"/>
<path d="M0 0 C0.66 0.33 1.32 0.66 2 1 C2.34153937 2.66500443 2.67449498 4.33178677 3 6 C3.66 6.66 4.32 7.32 5 8 C0.545 8.495 0.545 8.495 -4 9 C-3.67 7.02 -3.34 5.04 -3 3 C-1.515 3.99 -1.515 3.99 0 5 C0 3.35 0 1.7 0 0 Z " fill="#99BD77" transform="translate(418,97)"/>
<path d="M0 0 C4.62 0 9.24 0 14 0 C15.25 6.625 15.25 6.625 13 10 C12.08107884 6.32431536 12.04095144 4.83619425 13 1 C8.71 1 4.42 1 0 1 C0 0.67 0 0.34 0 0 Z " fill="#9FC176" transform="translate(607,53)"/>
<path d="M0 0 C0.33 0 0.66 0 1 0 C1.103125 1.258125 1.20625 2.51625 1.3125 3.8125 C1.64858808 6.60499657 1.80025876 7.74433121 3.5625 10 C4.036875 10.33 4.51125 10.66 5 11 C3.02 11 1.04 11 -1 11 C-1.125 3.375 -1.125 3.375 0 0 Z " fill="#A3C183" transform="translate(294,231)"/>
<path d="M0 0 C0.66 0 1.32 0 2 0 C2.17835515 4.54805635 1.99785435 7.8794254 0 12 C-2 9 -2 9 -3 6 C-2.34 5.67 -1.68 5.34 -1 5 C-0.34444881 2.47266765 -0.34444881 2.47266765 0 0 Z " fill="#434E88" transform="translate(156,198)"/>
<path d="M0 0 C2 2 2 2 2.25 4.875 C2.01152253 7.85596832 1.54507335 9.4892558 0 12 C-0.66 12 -1.32 12 -2 12 C-1 3.42857143 -1 3.42857143 0 0 Z " fill="#A1BF7F" transform="translate(423,68)"/>
<path d="M0 0 C0.66 0 1.32 0 2 0 C1.88544319 1.91731918 1.75793742 3.8338675 1.625 5.75 C1.55539063 6.81734375 1.48578125 7.8846875 1.4140625 8.984375 C1.0271777 11.80206432 0.44313834 13.5830366 -1 16 C-1.02725341 14.2709226 -1.04650987 12.54171824 -1.0625 10.8125 C-1.07410156 9.84957031 -1.08570313 8.88664063 -1.09765625 7.89453125 C-1.00486622 5.14423487 -0.62111685 2.67520409 0 0 Z " fill="#6F76A0" transform="translate(163,171)"/>
<path d="M0 0 C1.32 0 2.64 0 4 0 C2.82744291 3.33727786 1.81131596 5.77437487 -1 8 C-1.66 8 -2.32 8 -3 8 C-3 7.01 -3 6.02 -3 5 C-2.34 5 -1.68 5 -1 5 C-0.67 3.35 -0.34 1.7 0 0 Z " fill="#767DA9" transform="translate(264,218)"/>
<path d="M0 0 C1.21065165 3.63195496 0.62784815 5.06531629 -0.4375 8.6875 C-0.86869141 10.17830078 -0.86869141 10.17830078 -1.30859375 11.69921875 C-1.53675781 12.45847656 -1.76492187 13.21773437 -2 14 C-3.36398513 11.75700222 -4.05762059 10.50929167 -3.7578125 7.859375 C-3.171875 5.90625 -2.5859375 3.953125 -2 2 C-1.34 2 -0.68 2 0 2 C0 1.34 0 0.68 0 0 Z " fill="#7079A7" transform="translate(161,187)"/>
<path d="M0 0 C1.32757546 3.98272639 0.3296542 6.0810192 -1 10 C-1.66 10.99 -2.32 11.98 -3 13 C-3.08121924 11.39667209 -3.13929134 9.79215974 -3.1875 8.1875 C-3.22230469 7.29417969 -3.25710938 6.40085938 -3.29296875 5.48046875 C-2.95081002 2.58352485 -2.24606427 1.77444972 0 0 Z " fill="#A4BF85" transform="translate(536,148)"/>
<path d="M0 0 C0.33 0.66 0.66 1.32 1 2 C1.66 2.33 2.32 2.66 3 3 C1.625 5.5 1.625 5.5 0 8 C-0.66 8 -1.32 8 -2 8 C-2.93423645 4.98968256 -3.04449911 4.13349732 -2 1 C-1.34 0.67 -0.68 0.34 0 0 Z " fill="#3D4B8A" transform="translate(213,177)"/>
<path d="M0 0 C0.33 0 0.66 0 1 0 C2.08360869 6.06820868 1.79074734 10.10106757 0 16 C-0.33 16 -0.66 16 -1 16 C-1.11138159 10.54230189 -0.91657981 5.38490641 0 0 Z " fill="#B1CC93" transform="translate(376,173)"/>
<path d="M0 0 C1.31223496 3.93670488 0.24296256 6.12488144 -1 10 C-3 8 -3 8 -3.3125 5 C-3.209375 4.01 -3.10625 3.02 -3 2 C-2.01 1.34 -1.02 0.68 0 0 Z " fill="#727DA7" transform="translate(169,156)"/>
<path d="M0 0 C0.99 0 1.98 0 3 0 C2.67 2.31 2.34 4.62 2 7 C1.01 7 0.02 7 -1 7 C-1.04254356 5.00045254 -1.04080783 2.99958364 -1 1 C-0.67 0.67 -0.34 0.34 0 0 Z " fill="#A5C584" transform="translate(381,153)"/>
<path d="M0 0 C0.66 0 1.32 0 2 0 C1.95875 1.093125 1.9175 2.18625 1.875 3.3125 C1.67925334 7.08892229 1.67925334 7.08892229 4 10 C2.35 9.67 0.7 9.34 -1 9 C-0.67 6.03 -0.34 3.06 0 0 Z " fill="#494E83" transform="translate(59,308)"/>
<path d="M0 0 C1.98 0.495 1.98 0.495 4 1 C3.01 3.97 2.02 6.94 1 10 C0.67 10 0.34 10 0 10 C-0.19412181 8.52168779 -0.38012131 7.04230684 -0.5625 5.5625 C-0.66691406 4.73878906 -0.77132812 3.91507812 -0.87890625 3.06640625 C-0.91886719 2.38449219 -0.95882812 1.70257813 -1 1 C-0.67 0.67 -0.34 0.34 0 0 Z " fill="#AFCA8B" transform="translate(545,106)"/>
<path d="M0 0 C2.64 0 5.28 0 8 0 C8.66 1.65 9.32 3.3 10 5 C8.68 4.67 7.36 4.34 6 4 C6 3.34 6 2.68 6 2 C4.35 1.67 2.7 1.34 1 1 C1 1.66 1 2.32 1 3 C0.34 2.67 -0.32 2.34 -1 2 C-0.67 1.34 -0.34 0.68 0 0 Z " fill="#394A8C" transform="translate(148,232)"/>
<path d="M0 0 C2.9375 0.375 2.9375 0.375 6 1 C7.6415049 4.2830098 6.51888624 7.42545033 6 11 C5.67 11 5.34 11 5 11 C5 8.36 5 5.72 5 3 C3.35 2.67 1.7 2.34 0 2 C0 1.34 0 0.68 0 0 Z " fill="#7881A6" transform="translate(215,133)"/>
<path d="M0 0 C0.99 0 1.98 0 3 0 C3.1875 2.875 3.1875 2.875 3 6 C2.01 6.66 1.02 7.32 0 8 C0 5.36 0 2.72 0 0 Z " fill="#46548A" transform="translate(140,255)"/>
<path d="M0 0 C1.60080151 4.00200378 0.29279692 7.04556236 -1 11 C-1.66 11 -2.32 11 -3 11 C-3.32613618 6.32538149 -2.70582788 3.83325617 0 0 Z " fill="#ACCA91" transform="translate(368,213)"/>
<path d="M0 0 C0.66 0 1.32 0 2 0 C1.25 7.625 1.25 7.625 -1 11 C-1.125 3.375 -1.125 3.375 0 0 Z " fill="#B8D2A1" transform="translate(526,185)"/>
<path d="M0 0 C0.33 0 0.66 0 1 0 C0.67 2.97 0.34 5.94 0 9 C-0.33 8.34 -0.66 7.68 -1 7 C-1.99 6.67 -2.98 6.34 -4 6 C-2.69593116 3.98079663 -1.36176581 1.98075027 0 0 Z " fill="#4E598C" transform="translate(166,164)"/>
<path d="M0 0 C0.66 0.66 1.32 1.32 2 2 C1.66083005 5.18819752 1.01406317 7.95781049 0 11 C-0.66 11 -1.32 11 -2 11 C-2 9.68 -2 8.36 -2 7 C-1.34 7 -0.68 7 0 7 C-0.2784375 5.824375 -0.2784375 5.824375 -0.5625 4.625 C-1 2 -1 2 0 0 Z " fill="#3D4B85" transform="translate(99,156)"/>
<path d="M0 0 C0.33 0 0.66 0 1 0 C1.33 2.31 1.66 4.62 2 7 C1.34 7 0.68 7 0 7 C0.33 7.99 0.66 8.98 1 10 C0.01 10.66 -0.98 11.32 -2 12 C-1 3.42857143 -1 3.42857143 0 0 Z " fill="#BCD4A1" transform="translate(426,54)"/>
<path d="M0 0 C2 3 2 3 1.7578125 5.04296875 C1.171875 7.02864583 0.5859375 9.01432292 0 11 C-0.66 11 -1.32 11 -2 11 C-1.125 3.375 -1.125 3.375 0 0 Z " fill="#ABCA94" transform="translate(339,52)"/>
<path d="M0 0 C1.32 0.66 2.64 1.32 4 2 C0.375 5 0.375 5 -3 5 C-3 4.01 -3 3.02 -3 2 C-2.01 1.34 -1.02 0.68 0 0 Z " fill="#576495" transform="translate(199,211)"/>
<path d="M0 0 C1.73662334 3.22515763 2.8905928 6.51329166 4 10 C3.34 9.67 2.68 9.34 2 9 C2 8.34 2 7.68 2 7 C1.01 7 0.02 7 -1 7 C-0.67 4.69 -0.34 2.38 0 0 Z " fill="#596493" transform="translate(156,207)"/>
<path d="M0 0 C0 3.11227195 -0.45627049 5.94152152 -1 9 C-1.66 9 -2.32 9 -3 9 C-3 6.36 -3 3.72 -3 1 C-2.01 0.67 -1.02 0.34 0 0 Z " fill="#94BC6D" transform="translate(309,184)"/>
<path d="M0 0 C0.66 0 1.32 0 2 0 C1.5251065 4.11574371 0.9789756 7.36383344 -1 11 C-1.0270043 9.54176788 -1.04639787 8.08339325 -1.0625 6.625 C-1.07410156 5.81289062 -1.08570313 5.00078125 -1.09765625 4.1640625 C-1 2 -1 2 0 0 Z " fill="#B1C993" transform="translate(538,137)"/>
<path d="M0 0 C0.66 0 1.32 0 2 0 C1.34 3.63 0.68 7.26 0 11 C-0.33 11 -0.66 11 -1 11 C-1.02688151 9.35425434 -1.04634123 7.70838587 -1.0625 6.0625 C-1.07410156 5.14597656 -1.08570313 4.22945312 -1.09765625 3.28515625 C-1 1 -1 1 0 0 Z " fill="#BACF9C" transform="translate(541,126)"/>
<path d="M0 0 C0 1.32 0 2.64 0 4 C-2.97 3.505 -2.97 3.505 -6 3 C-6 2.01 -6 1.02 -6 0 C-3 -1 -3 -1 0 0 Z " fill="#414D8E" transform="translate(128,313)"/>
<path d="M0 0 C0 0.66 0 1.32 0 2 C-3.37097383 3.49821059 -5.20442119 4 -9 4 C-9 3.34 -9 2.68 -9 2 C-3.375 0 -3.375 0 0 0 Z " fill="#6E7DA6" transform="translate(245,237)"/>
<path d="M0 0 C0.33 0 0.66 0 1 0 C1.125 6.625 1.125 6.625 0 10 C-0.66 10 -1.32 10 -2 10 C-2.17942163 6.05272412 -2.09350689 3.4019487 0 0 Z " fill="#94BB6F" transform="translate(522,197)"/>
<path d="M0 0 C1.31223496 3.93670488 0.24296256 6.12488144 -1 10 C-2.125 8.3125 -2.125 8.3125 -3 6 C-1.7 1.7 -1.7 1.7 0 0 Z " fill="#BAD5A1" transform="translate(617,74)"/>
<path d="M0 0 C2 3 2 3 1.625 5.6875 C1.41875 6.450625 1.2125 7.21375 1 8 C0.34 8 -0.32 8 -1 8 C-1.33 8.66 -1.66 9.32 -2 10 C-1.46274105 6.62294375 -0.88935377 3.303314 0 0 Z " fill="#6E77A5" transform="translate(87,199)"/>
<path d="M0 0 C0.66 1.32 1.32 2.64 2 4 C1.34 4 0.68 4 0 4 C0.2784375 4.928125 0.2784375 4.928125 0.5625 5.875 C1 8 1 8 0 10 C-0.66 10 -1.32 10 -2 10 C-1.34 6.7 -0.68 3.4 0 0 Z " fill="#ADCA91" transform="translate(459,180)"/>
<path d="M0 0 C0.66 0.33 1.32 0.66 2 1 C2 2.98 2 4.96 2 7 C1.34 7 0.68 7 0 7 C-0.33 7.66 -0.66 8.32 -1 9 C-0.67 6.03 -0.34 3.06 0 0 Z " fill="#3E4C85" transform="translate(277,180)"/>
<path d="M0 0 C0.66 0.66 1.32 1.32 2 2 C1.625 5.625 1.625 5.625 1 9 C0.34 8.67 -0.32 8.34 -1 8 C-0.67 5.36 -0.34 2.72 0 0 Z " fill="#495584" transform="translate(171,139)"/>
<path d="M0 0 C0.33 0 0.66 0 1 0 C1 1.65 1 3.3 1 5 C-0.98 5.99 -0.98 5.99 -3 7 C-2.25 2.25 -2.25 2.25 0 0 Z " fill="#9BC07B" transform="translate(543,120)"/>
<path d="M0 0 C1.32 0.33 2.64 0.66 4 1 C2.68 2.32 1.36 3.64 0 5 C-0.66 4.67 -1.32 4.34 -2 4 C-2 3.34 -2 2.68 -2 2 C-1.34 2 -0.68 2 0 2 C0 1.34 0 0.68 0 0 Z " fill="#3D4C88" transform="translate(203,208)"/>
<path d="M0 0 C2.97 0 5.94 0 9 0 C5 2 5 2 1 4 C0.67 2.68 0.34 1.36 0 0 Z " fill="#8288AF" transform="translate(175,134)"/>
<path d="M0 0 C0.66 0 1.32 0 2 0 C2 0.66 2 1.32 2 2 C2.66 2.33 3.32 2.66 4 3 C3.34 4.32 2.68 5.64 2 7 C1.34 7 0.68 7 0 7 C0 4.69 0 2.38 0 0 Z " fill="#ABC78A" transform="translate(327,98)"/>
</svg>
